<svg xmlns="http://www.w3.org/2000/svg" viewBox="0 0 1010 380" width="1010" height="380" font-family="-apple-system, Segoe UI, Helvetica, Arial, sans-serif" role="img" aria-label="Telveguard istek akışı: kaynaklardan gelen istek kimlik, tarama, politika ve maskeleme adımlarından geçer; kurum içi modele olduğu gibi, yurt dışı modele maskeli gider; her istek ve tarayıcı eklentisi olayları denetim kaydına ve raporlara düşer."><defs><marker id="dim" viewBox="0 0 10 10" refX="9" refY="5" markerWidth="7" markerHeight="7" orient="auto-start-reverse"><path d="M0,0 L10,5 L0,10 z" fill="#9198a1"/></marker><marker id="acc" viewBox="0 0 10 10" refX="9" refY="5" markerWidth="7" markerHeight="7" orient="auto-start-reverse"><path d="M0,0 L10,5 L0,10 z" fill="#e0a871"/></marker></defs><rect x="20" y="30" width="190" height="52" rx="10" fill="#161b22" stroke="#3d444d"/><text x="34" y="53" font-size="14" font-weight="600" fill="#e6edf3">Uygulamalar</text><text x="34" y="72" font-size="12" fill="#9198a1">OpenAI · Anthropic SDK</text><line x1="210" y1="56" x2="268" y2="56" stroke="#9198a1" stroke-width="1.6" marker-end="url(#dim)"/><rect x="20" y="96" width="190" height="52" rx="10" fill="#161b22" stroke="#3d444d"/><text x="34" y="119" font-size="14" font-weight="600" fill="#e6edf3">Kod asistanları</text><text x="34" y="138" font-size="12" fill="#9198a1">Claude Code · Codex CLI</text><line x1="210" y1="122" x2="268" y2="122" stroke="#9198a1" stroke-width="1.6" marker-end="url(#dim)"/><rect x="20" y="162" width="190" height="52" rx="10" fill="#161b22" stroke="#3d444d"/><text x="34" y="185" font-size="14" font-weight="600" fill="#e6edf3">AI agent'lar</text><text x="34" y="204" font-size="12" fill="#9198a1">MCP · ContextForge</text><line x1="210" y1="188" x2="268" y2="188" stroke="#9198a1" stroke-width="1.6" marker-end="url(#dim)"/><rect x="270" y="20" width="420" height="200" rx="14" fill="#2a1d12" stroke="#e0a871" stroke-width="2"/><text x="290" y="50" font-size="18" font-weight="700" fill="#e0a871">Telveguard</text><text x="290" y="70" font-size="12" fill="#9198a1">OpenAI ve Anthropic uyumlu · uygulama kodu değişmez</text><rect x="286" y="88" width="90" height="52" rx="8" fill="#161b22" stroke="#3d444d"/><text x="331" y="110" font-size="13" font-weight="600" text-anchor="middle" fill="#e6edf3">Kimlik</text><text x="331" y="127" font-size="10.5" text-anchor="middle" fill="#9198a1">OIDC · JWT</text><line x1="377" y1="114" x2="385" y2="114" stroke="#9198a1" stroke-width="1.6" marker-end="url(#dim)"/><rect x="386" y="88" width="90" height="52" rx="8" fill="#161b22" stroke="#3d444d"/><text x="431" y="110" font-size="13" font-weight="600" text-anchor="middle" fill="#e6edf3">Tarama</text><text x="431" y="127" font-size="10.5" text-anchor="middle" fill="#9198a1">PII · sır · saldırı</text><line x1="477" y1="114" x2="485" y2="114" stroke="#9198a1" stroke-width="1.6" marker-end="url(#dim)"/><rect x="486" y="88" width="90" height="52" rx="8" fill="#161b22" stroke="#3d444d"/><text x="531" y="110" font-size="13" font-weight="600" text-anchor="middle" fill="#e6edf3">Politika</text><text x="531" y="127" font-size="10.5" text-anchor="middle" fill="#9198a1">kural · kota</text><line x1="577" y1="114" x2="585" y2="114" stroke="#9198a1" stroke-width="1.6" marker-end="url(#dim)"/><rect x="586" y="88" width="90" height="52" rx="8" fill="#161b22" stroke="#3d444d"/><text x="631" y="110" font-size="13" font-weight="600" text-anchor="middle" fill="#e6edf3">Maskeleme</text><text x="631" y="127" font-size="10.5" text-anchor="middle" fill="#9198a1">TC → [TCKN_1]</text><text x="290" y="172" font-size="12" fill="#e6edf3">↩ Cevap: yer tutucular gerçek değere çevrilir</text><text x="290" y="192" font-size="12" fill="#e6edf3">⛨ Modelin ürettiği yeni kişisel veri / sır gizlenir</text><rect x="810" y="40" width="180" height="56" rx="10" fill="#161b22" stroke="#3d444d"/><text x="824" y="63" font-size="14" font-weight="600" fill="#e6edf3">Kurum içi LLM</text><text x="824" y="82" font-size="12" fill="#9198a1">vLLM · Ollama</text><line x1="690" y1="68" x2="808" y2="68" stroke="#9198a1" stroke-width="1.6" marker-end="url(#dim)"/><text x="749" y="60" font-size="11.5" text-anchor="middle" fill="#9198a1">olduğu gibi</text><rect x="810" y="150" width="180" height="56" rx="10" fill="#161b22" stroke="#e0a871"/><text x="824" y="173" font-size="14" font-weight="600" fill="#e6edf3">Yurt dışı LLM</text><text x="824" y="192" font-size="12" fill="#9198a1">OpenAI · Anthropic · Gemini</text><line x1="690" y1="178" x2="808" y2="178" stroke="#e0a871" stroke-width="1.6" marker-end="url(#acc)"/><text x="749" y="170" font-size="11.5" text-anchor="middle" fill="#e0a871">maskeli · [TCKN_1]</text><line x1="400" y1="220" x2="400" y2="298" stroke="#9198a1" stroke-width="1.6" marker-end="url(#dim)"/><text x="410" y="264" font-size="11.5" text-anchor="start" fill="#9198a1">her istek · ham prompt yok</text><rect x="300" y="300" width="200" height="56" rx="10" fill="#161b22" stroke="#3d444d"/><text x="314" y="323" font-size="14" font-weight="600" fill="#e6edf3">Denetim kaydı</text><text x="314" y="342" font-size="12" fill="#9198a1">Kafka → ClickHouse</text><line x1="500" y1="328" x2="578" y2="328" stroke="#9198a1" stroke-width="1.6" marker-end="url(#dim)"/><text x="539" y="320" font-size="11.5" text-anchor="middle" fill="#9198a1">raporlar</text><rect x="580" y="300" width="410" height="56" rx="10" fill="#161b22" stroke="#3d444d"/><text x="594" y="323" font-size="14" font-weight="600" fill="#e6edf3">Röntgen · KVKK · VERBİS · EU AI Act</text><text x="594" y="342" font-size="12" fill="#9198a1">kim, hangi modeli, hangi veriyle kullanıyor</text><rect x="20" y="300" width="190" height="56" rx="10" fill="#161b22" stroke="#3d444d"/><text x="34" y="323" font-size="14" font-weight="600" fill="#e6edf3">Tarayıcı eklentisi</text><text x="34" y="342" font-size="12" fill="#9198a1">ChatGPT'ye yapıştırma</text><line x1="210" y1="328" x2="298" y2="328" stroke="#9198a1" stroke-width="1.6" stroke-dasharray="5 4" marker-end="url(#dim)"/><text x="254" y="320" font-size="11.5" text-anchor="middle" fill="#9198a1">olay, metin yok</text></svg>